<?xml version="1.0" encoding="UTF-8" standalone="no"?>
<!DOCTYPE svg PUBLIC "-//W3C//DTD SVG 1.1//EN"
 "http://www.w3.org/Graphics/SVG/1.1/DTD/svg11.dtd">
<!-- Generated by graphviz version 14.1.2 (20260124.0452)
 -->
<!-- Title: G Pages: 1 -->
<svg width="1438pt" height="473pt"
 viewBox="0.00 0.00 1438.00 473.00" xmlns="http://www.w3.org/2000/svg" xmlns:xlink="http://www.w3.org/1999/xlink">
<g id="graph0" class="graph" transform="scale(1 1) rotate(0) translate(4 469.13)">
<title>G</title><style>.edge>path:hover{stroke-width:8}</style>
<polygon fill="white" stroke="none" points="-4,4 -4,-469.13 1434.02,-469.13 1434.02,4 -4,4"/>
<!-- cfd_io -->
<g id="node1" class="node">
<title>cfd_io</title><style>.edge>path:hover{stroke-width:8}</style>
<polygon fill="blue" stroke="black" points="352.81,-36 298.81,-36 298.81,0 352.81,0 352.81,-36"/>
<text xml:space="preserve" text-anchor="middle" x="325.81" y="-14.12" font-family="Helvetica,sans-Serif" font-size="10.00" fill="white">cfd_io</text>
</g>
<!-- cfd_io_cli -->
<g id="node2" class="node">
<title>cfd_io_cli</title><style>.edge>path:hover{stroke-width:8}</style>
<ellipse fill="#a44646" stroke="black" cx="232.81" cy="-18" rx="32.54" ry="18"/>
<text xml:space="preserve" text-anchor="middle" x="232.81" y="-14.12" font-family="Helvetica,sans-Serif" font-size="10.00" fill="#ffffff">cfd_io.cli</text>
</g>
<!-- cfd_io_convert_mod -->
<g id="node3" class="node">
<title>cfd_io_convert_mod</title><style>.edge>path:hover{stroke-width:8}</style>
<polygon fill="blue" stroke="black" points="400.93,-108 328.68,-108 328.68,-72 400.93,-72 400.93,-108"/>
<text xml:space="preserve" text-anchor="middle" x="364.81" y="-91.75" font-family="Helvetica,sans-Serif" font-size="10.00" fill="white">cfd_io.</text>
<text xml:space="preserve" text-anchor="middle" x="364.81" y="-80.5" font-family="Helvetica,sans-Serif" font-size="10.00" fill="white">convert_mod</text>
</g>
<!-- cfd_io_convert_mod&#45;&gt;cfd_io -->
<g id="edge1" class="edge">
<title>cfd_io_convert_mod&#45;&gt;cfd_io</title><style>.edge>path:hover{stroke-width:8}</style>
<path fill="none" stroke="black" d="M355.17,-71.7C350.87,-63.98 345.7,-54.71 340.91,-46.11"/>
<polygon fill="blue" stroke="black" points="344,-44.46 336.07,-37.43 337.88,-47.87 344,-44.46"/>
</g>
<!-- cfd_io_convert_mod&#45;&gt;cfd_io_cli -->
<g id="edge2" class="edge">
<title>cfd_io_convert_mod&#45;&gt;cfd_io_cli</title><style>.edge>path:hover{stroke-width:8}</style>
<path fill="none" stroke="black" d="M331.84,-71.52C311.68,-60.83 285.98,-47.2 265.82,-36.51"/>
<polygon fill="blue" stroke="black" points="267.65,-33.51 257.17,-31.92 264.37,-39.7 267.65,-33.51"/>
</g>
<!-- cfd_io_info_mod -->
<g id="node4" class="node">
<title>cfd_io_info_mod</title><style>.edge>path:hover{stroke-width:8}</style>
<polygon fill="blue" stroke="black" points="230.68,-108 174.93,-108 174.93,-72 230.68,-72 230.68,-108"/>
<text xml:space="preserve" text-anchor="middle" x="202.81" y="-91.75" font-family="Helvetica,sans-Serif" font-size="10.00" fill="white">cfd_io.</text>
<text xml:space="preserve" text-anchor="middle" x="202.81" y="-80.5" font-family="Helvetica,sans-Serif" font-size="10.00" fill="white">info_mod</text>
</g>
<!-- cfd_io_info_mod&#45;&gt;cfd_io -->
<g id="edge3" class="edge">
<title>cfd_io_info_mod&#45;&gt;cfd_io</title><style>.edge>path:hover{stroke-width:8}</style>
<path fill="none" stroke="black" d="M231.03,-72.94C248.14,-63.2 270.18,-50.66 288.69,-40.12"/>
<polygon fill="blue" stroke="black" points="290.29,-43.24 297.25,-35.25 286.83,-37.16 290.29,-43.24"/>
</g>
<!-- cfd_io_info_mod&#45;&gt;cfd_io_cli -->
<g id="edge4" class="edge">
<title>cfd_io_info_mod&#45;&gt;cfd_io_cli</title><style>.edge>path:hover{stroke-width:8}</style>
<path fill="none" stroke="black" d="M210.22,-71.7C213.54,-63.95 217.53,-54.64 221.23,-46.02"/>
<polygon fill="blue" stroke="black" points="224.36,-47.58 225.09,-37.01 217.93,-44.83 224.36,-47.58"/>
</g>
<!-- cfd_io_readers -->
<g id="node5" class="node">
<title>cfd_io_readers</title><style>.edge>path:hover{stroke-width:8}</style>
<ellipse fill="#f91010" stroke="black" cx="226.81" cy="-162" rx="45.86" ry="18"/>
<text xml:space="preserve" text-anchor="middle" x="226.81" y="-158.12" font-family="Helvetica,sans-Serif" font-size="10.00" fill="#ffffff">cfd_io.readers</text>
</g>
<!-- cfd_io_readers&#45;&gt;cfd_io -->
<g id="edge5" class="edge">
<title>cfd_io_readers&#45;&gt;cfd_io</title><style>.edge>path:hover{stroke-width:8}</style>
<path fill="none" stroke="black" d="M249.82,-146.2C267.06,-133.73 289.54,-114.23 300.81,-91"/>
</g>
<!-- cfd_io_readers&#45;&gt;cfd_io_convert_mod -->
<g id="edge6" class="edge">
<title>cfd_io_readers&#45;&gt;cfd_io_convert_mod</title><style>.edge>path:hover{stroke-width:8}</style>
<path fill="none" stroke="black" d="M254.07,-147.17C272.99,-137.57 298.61,-124.58 320.45,-113.5"/>
<polygon fill="#f91010" stroke="black" points="321.81,-116.73 329.15,-109.09 318.64,-110.49 321.81,-116.73"/>
</g>
<!-- cfd_io_readers&#45;&gt;cfd_io_info_mod -->
<g id="edge7" class="edge">
<title>cfd_io_readers&#45;&gt;cfd_io_info_mod</title><style>.edge>path:hover{stroke-width:8}</style>
<path fill="none" stroke="black" d="M220.87,-143.7C218.32,-136.24 215.26,-127.32 212.39,-118.97"/>
<polygon fill="#f91010" stroke="black" points="215.72,-117.86 209.16,-109.54 209.09,-120.13 215.72,-117.86"/>
</g>
<!-- cfd_io_readers__aliases -->
<g id="node6" class="node">
<title>cfd_io_readers__aliases</title><style>.edge>path:hover{stroke-width:8}</style>
<ellipse fill="#e72222" stroke="black" cx="243.81" cy="-340.57" rx="36.77" ry="29.52"/>
<text xml:space="preserve" text-anchor="middle" x="243.81" y="-347.94" font-family="Helvetica,sans-Serif" font-size="10.00" fill="#ffffff">cfd_io.</text>
<text xml:space="preserve" text-anchor="middle" x="243.81" y="-336.69" font-family="Helvetica,sans-Serif" font-size="10.00" fill="#ffffff">readers.</text>
<text xml:space="preserve" text-anchor="middle" x="243.81" y="-325.44" font-family="Helvetica,sans-Serif" font-size="10.00" fill="#ffffff">_aliases</text>
</g>
<!-- cfd_io_readers_fortran_binary_direct -->
<g id="node8" class="node">
<title>cfd_io_readers_fortran_binary_direct</title><style>.edge>path:hover{stroke-width:8}</style>
<polygon fill="blue" stroke="black" points="243.06,-266.4 138.56,-266.4 138.56,-224.65 243.06,-224.65 243.06,-266.4"/>
<text xml:space="preserve" text-anchor="middle" x="190.81" y="-252.9" font-family="Helvetica,sans-Serif" font-size="10.00" fill="white">cfd_io.</text>
<text xml:space="preserve" text-anchor="middle" x="190.81" y="-241.65" font-family="Helvetica,sans-Serif" font-size="10.00" fill="white">readers.</text>
<text xml:space="preserve" text-anchor="middle" x="190.81" y="-230.4" font-family="Helvetica,sans-Serif" font-size="10.00" fill="white">fortran_binary_direct</text>
</g>
<!-- cfd_io_readers__aliases&#45;&gt;cfd_io_readers_fortran_binary_direct -->
<g id="edge8" class="edge">
<title>cfd_io_readers__aliases&#45;&gt;cfd_io_readers_fortran_binary_direct</title><style>.edge>path:hover{stroke-width:8}</style>
<path fill="none" stroke="black" d="M228.76,-313.15C222.28,-301.77 214.66,-288.39 207.95,-276.62"/>
<polygon fill="#e72222" stroke="black" points="211.09,-275.06 203.1,-268.1 205.01,-278.52 211.09,-275.06"/>
</g>
<!-- cfd_io_readers_hdf5 -->
<g id="node10" class="node">
<title>cfd_io_readers_hdf5</title><style>.edge>path:hover{stroke-width:8}</style>
<polygon fill="blue" stroke="black" points="403.81,-266.4 349.81,-266.4 349.81,-224.65 403.81,-224.65 403.81,-266.4"/>
<text xml:space="preserve" text-anchor="middle" x="376.81" y="-252.9" font-family="Helvetica,sans-Serif" font-size="10.00" fill="white">cfd_io.</text>
<text xml:space="preserve" text-anchor="middle" x="376.81" y="-241.65" font-family="Helvetica,sans-Serif" font-size="10.00" fill="white">readers.</text>
<text xml:space="preserve" text-anchor="middle" x="376.81" y="-230.4" font-family="Helvetica,sans-Serif" font-size="10.00" fill="white">hdf5</text>
</g>
<!-- cfd_io_readers__aliases&#45;&gt;cfd_io_readers_hdf5 -->
<g id="edge9" class="edge">
<title>cfd_io_readers__aliases&#45;&gt;cfd_io_readers_hdf5</title><style>.edge>path:hover{stroke-width:8}</style>
<path fill="none" stroke="black" d="M272.24,-321.54C291.81,-308.92 318.23,-291.45 340.81,-275.04 341.48,-274.55 342.17,-274.05 342.85,-273.55"/>
<polygon fill="#e72222" stroke="black" points="344.77,-276.48 350.63,-267.65 340.54,-270.9 344.77,-276.48"/>
</g>
<!-- cfd_io_readers_tecplot_ascii -->
<g id="node17" class="node">
<title>cfd_io_readers_tecplot_ascii</title><style>.edge>path:hover{stroke-width:8}</style>
<polygon fill="blue" stroke="black" points="332.18,-266.4 261.43,-266.4 261.43,-224.65 332.18,-224.65 332.18,-266.4"/>
<text xml:space="preserve" text-anchor="middle" x="296.81" y="-252.9" font-family="Helvetica,sans-Serif" font-size="10.00" fill="white">cfd_io.</text>
<text xml:space="preserve" text-anchor="middle" x="296.81" y="-241.65" font-family="Helvetica,sans-Serif" font-size="10.00" fill="white">readers.</text>
<text xml:space="preserve" text-anchor="middle" x="296.81" y="-230.4" font-family="Helvetica,sans-Serif" font-size="10.00" fill="white">tecplot_ascii</text>
</g>
<!-- cfd_io_readers__aliases&#45;&gt;cfd_io_readers_tecplot_ascii -->
<g id="edge10" class="edge">
<title>cfd_io_readers__aliases&#45;&gt;cfd_io_readers_tecplot_ascii</title><style>.edge>path:hover{stroke-width:8}</style>
<path fill="none" stroke="black" d="M258.85,-313.15C265.34,-301.77 272.96,-288.39 279.66,-276.62"/>
<polygon fill="#e72222" stroke="black" points="282.61,-278.52 284.51,-268.1 276.52,-275.06 282.61,-278.52"/>
</g>
<!-- cfd_io_readers_tecplot_binary -->
<g id="node18" class="node">
<title>cfd_io_readers_tecplot_binary</title><style>.edge>path:hover{stroke-width:8}</style>
<polygon fill="blue" stroke="black" points="120.18,-266.4 43.43,-266.4 43.43,-224.65 120.18,-224.65 120.18,-266.4"/>
<text xml:space="preserve" text-anchor="middle" x="81.81" y="-252.9" font-family="Helvetica,sans-Serif" font-size="10.00" fill="white">cfd_io.</text>
<text xml:space="preserve" text-anchor="middle" x="81.81" y="-241.65" font-family="Helvetica,sans-Serif" font-size="10.00" fill="white">readers.</text>
<text xml:space="preserve" text-anchor="middle" x="81.81" y="-230.4" font-family="Helvetica,sans-Serif" font-size="10.00" fill="white">tecplot_binary</text>
</g>
<!-- cfd_io_readers__aliases&#45;&gt;cfd_io_readers_tecplot_binary -->
<g id="edge11" class="edge">
<title>cfd_io_readers__aliases&#45;&gt;cfd_io_readers_tecplot_binary</title><style>.edge>path:hover{stroke-width:8}</style>
<path fill="none" stroke="black" d="M214.18,-323.02C191.12,-310.09 158.33,-291.59 129.81,-275.04 128.39,-274.22 126.95,-273.39 125.5,-272.54"/>
<polygon fill="#e72222" stroke="black" points="127.54,-269.68 117.15,-267.63 124,-275.71 127.54,-269.68"/>
</g>
<!-- cfd_io_readers__plot3d_common -->
<g id="node7" class="node">
<title>cfd_io_readers__plot3d_common</title><style>.edge>path:hover{stroke-width:8}</style>
<ellipse fill="#e72222" stroke="black" cx="849.81" cy="-435.61" rx="63.82" ry="29.52"/>
<text xml:space="preserve" text-anchor="middle" x="849.81" y="-442.98" font-family="Helvetica,sans-Serif" font-size="10.00" fill="#ffffff">cfd_io.</text>
<text xml:space="preserve" text-anchor="middle" x="849.81" y="-431.73" font-family="Helvetica,sans-Serif" font-size="10.00" fill="#ffffff">readers.</text>
<text xml:space="preserve" text-anchor="middle" x="849.81" y="-420.48" font-family="Helvetica,sans-Serif" font-size="10.00" fill="#ffffff">_plot3d_common</text>
</g>
<!-- cfd_io_readers_plot3d_flow_ascii -->
<g id="node13" class="node">
<title>cfd_io_readers_plot3d_flow_ascii</title><style>.edge>path:hover{stroke-width:8}</style>
<polygon fill="blue" stroke="black" points="867.31,-361.44 776.31,-361.44 776.31,-319.69 867.31,-319.69 867.31,-361.44"/>
<text xml:space="preserve" text-anchor="middle" x="821.81" y="-347.94" font-family="Helvetica,sans-Serif" font-size="10.00" fill="white">cfd_io.</text>
<text xml:space="preserve" text-anchor="middle" x="821.81" y="-336.69" font-family="Helvetica,sans-Serif" font-size="10.00" fill="white">readers.</text>
<text xml:space="preserve" text-anchor="middle" x="821.81" y="-325.44" font-family="Helvetica,sans-Serif" font-size="10.00" fill="white">plot3d_flow_ascii</text>
</g>
<!-- cfd_io_readers__plot3d_common&#45;&gt;cfd_io_readers_plot3d_flow_ascii -->
<g id="edge12" class="edge">
<title>cfd_io_readers__plot3d_common&#45;&gt;cfd_io_readers_plot3d_flow_ascii</title><style>.edge>path:hover{stroke-width:8}</style>
<path fill="none" stroke="black" d="M841.18,-405.93C837.98,-395.31 834.34,-383.23 831.09,-372.42"/>
<polygon fill="#e72222" stroke="black" points="834.55,-371.75 828.31,-363.19 827.84,-373.77 834.55,-371.75"/>
</g>
<!-- cfd_io_readers_plot3d_flow_binary -->
<g id="node14" class="node">
<title>cfd_io_readers_plot3d_flow_binary</title><style>.edge>path:hover{stroke-width:8}</style>
<polygon fill="blue" stroke="black" points="1095.31,-361.44 998.31,-361.44 998.31,-319.69 1095.31,-319.69 1095.31,-361.44"/>
<text xml:space="preserve" text-anchor="middle" x="1046.81" y="-347.94" font-family="Helvetica,sans-Serif" font-size="10.00" fill="white">cfd_io.</text>
<text xml:space="preserve" text-anchor="middle" x="1046.81" y="-336.69" font-family="Helvetica,sans-Serif" font-size="10.00" fill="white">readers.</text>
<text xml:space="preserve" text-anchor="middle" x="1046.81" y="-325.44" font-family="Helvetica,sans-Serif" font-size="10.00" fill="white">plot3d_flow_binary</text>
</g>
<!-- cfd_io_readers__plot3d_common&#45;&gt;cfd_io_readers_plot3d_flow_binary -->
<g id="edge13" class="edge">
<title>cfd_io_readers__plot3d_common&#45;&gt;cfd_io_readers_plot3d_flow_binary</title><style>.edge>path:hover{stroke-width:8}</style>
<path fill="none" stroke="black" d="M894.37,-414.23C921.7,-401.66 957.36,-385.11 988.81,-370.09 990.94,-369.07 993.12,-368.02 995.32,-366.96"/>
<polygon fill="#e72222" stroke="black" points="996.84,-370.11 1004.31,-362.6 993.79,-363.81 996.84,-370.11"/>
</g>
<!-- cfd_io_readers_plot3d_grid_ascii -->
<g id="node15" class="node">
<title>cfd_io_readers_plot3d_grid_ascii</title><style>.edge>path:hover{stroke-width:8}</style>
<polygon fill="blue" stroke="black" points="758.18,-361.44 669.43,-361.44 669.43,-319.69 758.18,-319.69 758.18,-361.44"/>
<text xml:space="preserve" text-anchor="middle" x="713.81" y="-347.94" font-family="Helvetica,sans-Serif" font-size="10.00" fill="white">cfd_io.</text>
<text xml:space="preserve" text-anchor="middle" x="713.81" y="-336.69" font-family="Helvetica,sans-Serif" font-size="10.00" fill="white">readers.</text>
<text xml:space="preserve" text-anchor="middle" x="713.81" y="-325.44" font-family="Helvetica,sans-Serif" font-size="10.00" fill="white">plot3d_grid_ascii</text>
</g>
<!-- cfd_io_readers__plot3d_common&#45;&gt;cfd_io_readers_plot3d_grid_ascii -->
<g id="edge14" class="edge">
<title>cfd_io_readers__plot3d_common&#45;&gt;cfd_io_readers_plot3d_grid_ascii</title><style>.edge>path:hover{stroke-width:8}</style>
<path fill="none" stroke="black" d="M814.78,-410.65C795.71,-397.6 772.07,-381.43 752.46,-368.01"/>
<polygon fill="#e72222" stroke="black" points="754.67,-365.28 744.44,-362.52 750.72,-371.06 754.67,-365.28"/>
</g>
<!-- cfd_io_readers_plot3d_grid_binary -->
<g id="node16" class="node">
<title>cfd_io_readers_plot3d_grid_binary</title><style>.edge>path:hover{stroke-width:8}</style>
<polygon fill="blue" stroke="black" points="980.18,-361.44 885.43,-361.44 885.43,-319.69 980.18,-319.69 980.18,-361.44"/>
<text xml:space="preserve" text-anchor="middle" x="932.81" y="-347.94" font-family="Helvetica,sans-Serif" font-size="10.00" fill="white">cfd_io.</text>
<text xml:space="preserve" text-anchor="middle" x="932.81" y="-336.69" font-family="Helvetica,sans-Serif" font-size="10.00" fill="white">readers.</text>
<text xml:space="preserve" text-anchor="middle" x="932.81" y="-325.44" font-family="Helvetica,sans-Serif" font-size="10.00" fill="white">plot3d_grid_binary</text>
</g>
<!-- cfd_io_readers__plot3d_common&#45;&gt;cfd_io_readers_plot3d_grid_binary -->
<g id="edge15" class="edge">
<title>cfd_io_readers__plot3d_common&#45;&gt;cfd_io_readers_plot3d_grid_binary</title><style>.edge>path:hover{stroke-width:8}</style>
<path fill="none" stroke="black" d="M873.37,-408.19C883.94,-396.35 896.42,-382.35 907.22,-370.25"/>
<polygon fill="#e72222" stroke="black" points="909.68,-372.75 913.72,-362.96 904.45,-368.09 909.68,-372.75"/>
</g>
<!-- cfd_io_readers_fortran_binary_direct&#45;&gt;cfd_io -->
<g id="edge16" class="edge">
<title>cfd_io_readers_fortran_binary_direct&#45;&gt;cfd_io</title><style>.edge>path:hover{stroke-width:8}</style>
<path fill="none" stroke="black" d="M227,-224.16C256.95,-206.27 295.43,-180.43 300.81,-163"/>
<path fill="none" stroke="black" d="M300.81,-161C309.98,-131.27 287.24,-119 300.81,-91"/>
</g>
<!-- cfd_io_readers_fortran_binary_direct&#45;&gt;cfd_io_convert_mod -->
<g id="edge17" class="edge">
<title>cfd_io_readers_fortran_binary_direct&#45;&gt;cfd_io_convert_mod</title><style>.edge>path:hover{stroke-width:8}</style>
<path fill="none" stroke="black" d="M338.81,-161C347.39,-148.4 353.57,-132.62 357.75,-119.22"/>
<polygon fill="blue" stroke="black" points="361.1,-120.24 360.5,-109.66 354.37,-118.31 361.1,-120.24"/>
<path fill="none" stroke="black" d="M232.17,-224.16C273.56,-203.41 332.06,-172.91 338.81,-163"/>
</g>
<!-- cfd_io_readers_fortran_binary_direct&#45;&gt;cfd_io_info_mod -->
<g id="edge18" class="edge">
<title>cfd_io_readers_fortran_binary_direct&#45;&gt;cfd_io_info_mod</title><style>.edge>path:hover{stroke-width:8}</style>
<path fill="none" stroke="black" d="M147.21,-224.21C141.05,-221.41 134.78,-218.61 128.81,-216 72.38,-191.35 -5.65,-224.23 0.81,-163"/>
</g>
<!-- cfd_io_readers_fortran_binary_sequential -->
<g id="node9" class="node">
<title>cfd_io_readers_fortran_binary_sequential</title><style>.edge>path:hover{stroke-width:8}</style>
<ellipse fill="#db2f2f" stroke="black" cx="1046.81" cy="-435.61" rx="88.21" ry="29.52"/>
<text xml:space="preserve" text-anchor="middle" x="1046.81" y="-442.98" font-family="Helvetica,sans-Serif" font-size="10.00" fill="#ffffff">cfd_io.</text>
<text xml:space="preserve" text-anchor="middle" x="1046.81" y="-431.73" font-family="Helvetica,sans-Serif" font-size="10.00" fill="#ffffff">readers.</text>
<text xml:space="preserve" text-anchor="middle" x="1046.81" y="-420.48" font-family="Helvetica,sans-Serif" font-size="10.00" fill="#ffffff">fortran_binary_sequential</text>
</g>
<!-- cfd_io_readers_fortran_binary_sequential&#45;&gt;cfd_io -->
<g id="edge19" class="edge">
<title>cfd_io_readers_fortran_binary_sequential&#45;&gt;cfd_io</title><style>.edge>path:hover{stroke-width:8}</style>
<path fill="none" stroke="black" d="M1341.81,-244.52C1252.08,-128.38 948.03,-289.87 1021.81,-163"/>
<path fill="none" stroke="black" d="M1126.2,-422.23C1165.8,-412.98 1212.63,-397.09 1247.81,-370.09 1272.56,-351.08 1267.09,-336.01 1285.81,-311.04 1308.58,-280.66 1365.02,-276.57 1341.81,-246.52"/>
</g>
<!-- cfd_io_readers_fortran_binary_sequential&#45;&gt;cfd_io_readers_plot3d_flow_binary -->
<g id="edge20" class="edge">
<title>cfd_io_readers_fortran_binary_sequential&#45;&gt;cfd_io_readers_plot3d_flow_binary</title><style>.edge>path:hover{stroke-width:8}</style>
<path fill="none" stroke="black" d="M1046.81,-405.68C1046.81,-395.37 1046.81,-383.71 1046.81,-373.18"/>
<polygon fill="#db2f2f" stroke="black" points="1050.31,-373.43 1046.81,-363.43 1043.31,-373.43 1050.31,-373.43"/>
</g>
<!-- cfd_io_readers_fortran_binary_sequential&#45;&gt;cfd_io_readers_plot3d_grid_binary -->
<g id="edge21" class="edge">
<title>cfd_io_readers_fortran_binary_sequential&#45;&gt;cfd_io_readers_plot3d_grid_binary</title><style>.edge>path:hover{stroke-width:8}</style>
<path fill="none" stroke="black" d="M1014.14,-407.95C999.07,-395.65 981.21,-381.07 966.06,-368.71"/>
<polygon fill="#db2f2f" stroke="black" points="968.64,-366.29 958.68,-362.68 964.21,-371.71 968.64,-366.29"/>
</g>
<!-- cfd_io_readers_hdf5&#45;&gt;cfd_io -->
<g id="edge22" class="edge">
<title>cfd_io_readers_hdf5&#45;&gt;cfd_io</title><style>.edge>path:hover{stroke-width:8}</style>
<path fill="none" stroke="black" d="M379.8,-224.34C381.58,-207.59 382.52,-183.3 376.81,-163"/>
<path fill="none" stroke="black" d="M376.81,-161C364.37,-116.79 280.78,-132.32 300.81,-91"/>
</g>
<!-- cfd_io_readers_hdf5&#45;&gt;cfd_io_convert_mod -->
<g id="edge23" class="edge">
<title>cfd_io_readers_hdf5&#45;&gt;cfd_io_convert_mod</title><style>.edge>path:hover{stroke-width:8}</style>
<path fill="none" stroke="black" d="M376.81,-161C373.06,-147.69 370.29,-132.6 368.37,-119.86"/>
<polygon fill="blue" stroke="black" points="371.84,-119.4 366.98,-109.98 364.91,-120.37 371.84,-119.4"/>
</g>
<!-- cfd_io_readers_plot3d -->
<g id="node11" class="node">
<title>cfd_io_readers_plot3d</title><style>.edge>path:hover{stroke-width:8}</style>
<polygon fill="blue" stroke="black" points="475.81,-266.4 421.81,-266.4 421.81,-224.65 475.81,-224.65 475.81,-266.4"/>
<text xml:space="preserve" text-anchor="middle" x="448.81" y="-252.9" font-family="Helvetica,sans-Serif" font-size="10.00" fill="white">cfd_io.</text>
<text xml:space="preserve" text-anchor="middle" x="448.81" y="-241.65" font-family="Helvetica,sans-Serif" font-size="10.00" fill="white">readers.</text>
<text xml:space="preserve" text-anchor="middle" x="448.81" y="-230.4" font-family="Helvetica,sans-Serif" font-size="10.00" fill="white">plot3d</text>
</g>
<!-- cfd_io_readers_plot3d&#45;&gt;cfd_io -->
<g id="edge24" class="edge">
<title>cfd_io_readers_plot3d&#45;&gt;cfd_io</title><style>.edge>path:hover{stroke-width:8}</style>
<path fill="none" stroke="black" d="M470.37,-224.17C474.85,-220.92 479.76,-217.98 484.81,-216 596.44,-172.22 961.53,-266.66 1021.81,-163"/>
<path fill="none" stroke="black" d="M1021.81,-161C1037.45,-134.11 1033.19,-119.96 1021.81,-91"/>
</g>
<!-- cfd_io_readers_plot3d&#45;&gt;cfd_io_convert_mod -->
<g id="edge25" class="edge">
<title>cfd_io_readers_plot3d&#45;&gt;cfd_io_convert_mod</title><style>.edge>path:hover{stroke-width:8}</style>
<path fill="none" stroke="black" d="M769.81,-161C722.1,-109.72 509.4,-95.93 412.81,-92.28"/>
<polygon fill="blue" stroke="black" points="412.98,-88.78 402.86,-91.93 412.73,-95.78 412.98,-88.78"/>
<path fill="none" stroke="black" d="M470.95,-224.31C475.3,-221.13 480.02,-218.18 484.81,-216 602.08,-162.65 857.57,-257.32 769.81,-163"/>
</g>
<!-- cfd_io_readers_plot3d&#45;&gt;cfd_io_info_mod -->
<g id="edge26" class="edge">
<title>cfd_io_readers_plot3d&#45;&gt;cfd_io_info_mod</title><style>.edge>path:hover{stroke-width:8}</style>
<path fill="none" stroke="black" d="M152.81,-161C146.68,-144.72 156.48,-128.76 168.99,-116.2"/>
<polygon fill="blue" stroke="black" points="171.31,-118.82 176.33,-109.49 166.59,-113.65 171.31,-118.82"/>
<path fill="none" stroke="black" d="M426.73,-224.17C422.37,-221 417.63,-218.09 412.81,-216 304.61,-169.08 194.32,-273.38 152.81,-163"/>
</g>
<!-- cfd_io_readers_plot3d_flow -->
<g id="node12" class="node">
<title>cfd_io_readers_plot3d_flow</title><style>.edge>path:hover{stroke-width:8}</style>
<polygon fill="blue" stroke="black" points="559.56,-266.4 494.06,-266.4 494.06,-224.65 559.56,-224.65 559.56,-266.4"/>
<text xml:space="preserve" text-anchor="middle" x="526.81" y="-252.9" font-family="Helvetica,sans-Serif" font-size="10.00" fill="white">cfd_io.</text>
<text xml:space="preserve" text-anchor="middle" x="526.81" y="-241.65" font-family="Helvetica,sans-Serif" font-size="10.00" fill="white">readers.</text>
<text xml:space="preserve" text-anchor="middle" x="526.81" y="-230.4" font-family="Helvetica,sans-Serif" font-size="10.00" fill="white">plot3d_flow</text>
</g>
<!-- cfd_io_readers_plot3d_flow&#45;&gt;cfd_io -->
<g id="edge27" class="edge">
<title>cfd_io_readers_plot3d_flow&#45;&gt;cfd_io</title><style>.edge>path:hover{stroke-width:8}</style>
<path fill="none" stroke="black" d="M552.37,-224.25C557.56,-220.99 563.17,-218.03 568.81,-216 664.17,-181.67 970.86,-250.62 1021.81,-163"/>
</g>
<!-- cfd_io_readers_plot3d_flow&#45;&gt;cfd_io_convert_mod -->
<g id="edge28" class="edge">
<title>cfd_io_readers_plot3d_flow&#45;&gt;cfd_io_convert_mod</title><style>.edge>path:hover{stroke-width:8}</style>
<path fill="none" stroke="black" d="M553.58,-224.4C558.48,-221.29 563.67,-218.34 568.81,-216 652.89,-177.72 832.74,-230.64 769.81,-163"/>
</g>
<!-- cfd_io_readers_plot3d_flow&#45;&gt;cfd_io_info_mod -->
<g id="edge29" class="edge">
<title>cfd_io_readers_plot3d_flow&#45;&gt;cfd_io_info_mod</title><style>.edge>path:hover{stroke-width:8}</style>
<path fill="none" stroke="black" d="M501.21,-224.34C496.02,-221.08 490.43,-218.09 484.81,-216 414.77,-189.99 179.11,-232.93 152.81,-163"/>
</g>
<!-- cfd_io_readers_plot3d_flow_ascii&#45;&gt;cfd_io -->
<g id="edge30" class="edge">
<title>cfd_io_readers_plot3d_flow_ascii&#45;&gt;cfd_io</title><style>.edge>path:hover{stroke-width:8}</style>
<path fill="none" stroke="black" d="M857.24,-319.31C863.61,-316.21 870.3,-313.3 876.81,-311.04 967.85,-279.47 1066.84,-341.38 1083.81,-246.52"/>
</g>
<!-- cfd_io_readers_plot3d_flow_ascii&#45;&gt;cfd_io_readers_plot3d_flow -->
<g id="edge31" class="edge">
<title>cfd_io_readers_plot3d_flow_ascii&#45;&gt;cfd_io_readers_plot3d_flow</title><style>.edge>path:hover{stroke-width:8}</style>
<path fill="none" stroke="black" d="M786.39,-319.25C780.02,-316.16 773.32,-313.27 766.81,-311.04 682.16,-282.13 651.59,-308.9 568.81,-275.04 566.79,-274.22 564.77,-273.28 562.76,-272.27"/>
<polygon fill="blue" stroke="black" points="564.71,-269.36 554.29,-267.44 561.24,-275.44 564.71,-269.36"/>
</g>
<!-- cfd_io_readers_plot3d_flow_binary&#45;&gt;cfd_io -->
<g id="edge32" class="edge">
<title>cfd_io_readers_plot3d_flow_binary&#45;&gt;cfd_io</title><style>.edge>path:hover{stroke-width:8}</style>
<path fill="none" stroke="black" d="M1057.68,-319.21C1066.82,-300.82 1079.12,-272.7 1083.81,-246.52"/>
</g>
<!-- cfd_io_readers_plot3d_flow_binary&#45;&gt;cfd_io_readers_plot3d_flow -->
<g id="edge33" class="edge">
<title>cfd_io_readers_plot3d_flow_binary&#45;&gt;cfd_io_readers_plot3d_flow</title><style>.edge>path:hover{stroke-width:8}</style>
<path fill="none" stroke="black" d="M1010.8,-319.32C1003.7,-316.06 996.16,-313.09 988.81,-311.04 808.31,-260.84 745.37,-337.7 568.81,-275.04 566.6,-274.26 564.4,-273.33 562.23,-272.3"/>
<polygon fill="blue" stroke="black" points="564.12,-269.35 553.68,-267.57 560.73,-275.47 564.12,-269.35"/>
</g>
<!-- cfd_io_readers_plot3d_grid_ascii&#45;&gt;cfd_io -->
<g id="edge34" class="edge">
<title>cfd_io_readers_plot3d_grid_ascii&#45;&gt;cfd_io</title><style>.edge>path:hover{stroke-width:8}</style>
<path fill="none" stroke="black" d="M1083.81,-244.52C1091.82,-199.71 998.92,-202.35 1021.81,-163"/>
<path fill="none" stroke="black" d="M747.85,-319.21C754.3,-316.04 761.13,-313.13 767.81,-311.04 894.7,-271.33 951.58,-344.76 1064.81,-275.04 1077.78,-267.06 1081.13,-261.52 1083.81,-246.52"/>
</g>
<!-- cfd_io_readers_plot3d_grid_ascii&#45;&gt;cfd_io_readers_plot3d -->
<g id="edge35" class="edge">
<title>cfd_io_readers_plot3d_grid_ascii&#45;&gt;cfd_io_readers_plot3d</title><style>.edge>path:hover{stroke-width:8}</style>
<path fill="none" stroke="black" d="M669.27,-332.42C621.68,-323.57 544.95,-305.77 484.81,-275.04 483.53,-274.39 482.25,-273.69 480.98,-272.95"/>
<polygon fill="blue" stroke="black" points="483.04,-270.11 472.77,-267.51 479.18,-275.95 483.04,-270.11"/>
</g>
<!-- cfd_io_readers_plot3d_grid_binary&#45;&gt;cfd_io -->
<g id="edge36" class="edge">
<title>cfd_io_readers_plot3d_grid_binary&#45;&gt;cfd_io</title><style>.edge>path:hover{stroke-width:8}</style>
<path fill="none" stroke="black" d="M973.25,-319.23C978.8,-316.46 984.44,-313.67 989.81,-311.04 1035.31,-288.74 1074.89,-296.4 1083.81,-246.52"/>
</g>
<!-- cfd_io_readers_plot3d_grid_binary&#45;&gt;cfd_io_readers_plot3d -->
<g id="edge37" class="edge">
<title>cfd_io_readers_plot3d_grid_binary&#45;&gt;cfd_io_readers_plot3d</title><style>.edge>path:hover{stroke-width:8}</style>
<path fill="none" stroke="black" d="M897.79,-319.2C891.01,-315.99 883.83,-313.07 876.81,-311.04 708.73,-262.47 647.23,-340.07 484.81,-275.04 483.23,-274.41 481.67,-273.69 480.14,-272.9"/>
<polygon fill="blue" stroke="black" points="482.01,-269.94 471.68,-267.62 478.3,-275.88 482.01,-269.94"/>
</g>
<!-- cfd_io_readers_tecplot_ascii&#45;&gt;cfd_io -->
<g id="edge38" class="edge">
<title>cfd_io_readers_tecplot_ascii&#45;&gt;cfd_io</title><style>.edge>path:hover{stroke-width:8}</style>
<path fill="none" stroke="black" d="M295.05,-224.27C294.25,-207.48 294.58,-183.17 300.81,-163"/>
</g>
<!-- cfd_io_readers_tecplot_ascii&#45;&gt;cfd_io_convert_mod -->
<g id="edge39" class="edge">
<title>cfd_io_readers_tecplot_ascii&#45;&gt;cfd_io_convert_mod</title><style>.edge>path:hover{stroke-width:8}</style>
<path fill="none" stroke="black" d="M305.53,-224.32C313.25,-207.33 325.36,-182.74 338.81,-163"/>
</g>
<!-- cfd_io_readers_tecplot_ascii&#45;&gt;cfd_io_info_mod -->
<g id="edge40" class="edge">
<title>cfd_io_readers_tecplot_ascii&#45;&gt;cfd_io_info_mod</title><style>.edge>path:hover{stroke-width:8}</style>
<path fill="none" stroke="black" d="M267.4,-224.39C262.32,-221.35 257,-218.43 251.81,-216 204.04,-193.71 169.91,-222.55 138.81,-180 129.36,-167.08 132,-158.48 138.81,-144 144.6,-131.68 154.82,-121.24 165.41,-112.97"/>
<polygon fill="blue" stroke="black" points="167.42,-115.84 173.49,-107.16 163.33,-110.16 167.42,-115.84"/>
</g>
<!-- cfd_io_readers_tecplot_binary&#45;&gt;cfd_io -->
<g id="edge41" class="edge">
<title>cfd_io_readers_tecplot_binary&#45;&gt;cfd_io</title><style>.edge>path:hover{stroke-width:8}</style>
<path fill="none" stroke="black" d="M95.58,-224.31C111.64,-202.05 140.05,-166.44 171.81,-144 222.43,-108.23 273.77,-146.78 300.81,-91"/>
<path fill="none" stroke="black" d="M300.81,-89C306.59,-75.41 312.2,-59.97 316.63,-47.06"/>
<polygon fill="blue" stroke="black" points="319.84,-48.51 319.72,-37.91 313.21,-46.27 319.84,-48.51"/>
</g>
<!-- cfd_io_readers_tecplot_binary&#45;&gt;cfd_io_convert_mod -->
<g id="edge42" class="edge">
<title>cfd_io_readers_tecplot_binary&#45;&gt;cfd_io_convert_mod</title><style>.edge>path:hover{stroke-width:8}</style>
<path fill="none" stroke="black" d="M94.46,-224.27C109.89,-201.28 138.13,-164.35 171.81,-144 227.9,-110.1 251.95,-126.56 314.81,-108 315.77,-107.72 316.74,-107.43 317.72,-107.13"/>
<polygon fill="blue" stroke="black" points="318.4,-110.58 326.88,-104.24 316.29,-103.91 318.4,-110.58"/>
</g>
<!-- cfd_io_readers_tecplot_binary&#45;&gt;cfd_io_info_mod -->
<g id="edge43" class="edge">
<title>cfd_io_readers_tecplot_binary&#45;&gt;cfd_io_info_mod</title><style>.edge>path:hover{stroke-width:8}</style>
<path fill="none" stroke="black" d="M0.81,-161C4.35,-127.33 105.43,-106.1 163.23,-96.68"/>
<polygon fill="blue" stroke="black" points="163.68,-100.15 173.02,-95.14 162.59,-93.24 163.68,-100.15"/>
<path fill="none" stroke="black" d="M43.22,-225.36C21,-211.31 -2.04,-189.98 0.81,-163"/>
</g>
<!-- cfd_io_writers -->
<g id="node19" class="node">
<title>cfd_io_writers</title><style>.edge>path:hover{stroke-width:8}</style>
<ellipse fill="#e72222" stroke="black" cx="895.81" cy="-162" rx="44.08" ry="18"/>
<text xml:space="preserve" text-anchor="middle" x="895.81" y="-158.12" font-family="Helvetica,sans-Serif" font-size="10.00" fill="#ffffff">cfd_io.writers</text>
</g>
<!-- cfd_io_writers&#45;&gt;cfd_io -->
<g id="edge44" class="edge">
<title>cfd_io_writers&#45;&gt;cfd_io</title><style>.edge>path:hover{stroke-width:8}</style>
<path fill="none" stroke="black" d="M937.21,-155.46C979.51,-147.62 1037,-129.66 1021.81,-91"/>
<path fill="none" stroke="black" d="M1021.81,-89C997.53,-27.23 507.2,-19.91 364.47,-19.09"/>
<polygon fill="#e72222" stroke="black" points="364.8,-15.59 354.79,-19.04 364.77,-22.59 364.8,-15.59"/>
</g>
<!-- cfd_io_writers&#45;&gt;cfd_io_convert_mod -->
<g id="edge45" class="edge">
<title>cfd_io_writers&#45;&gt;cfd_io_convert_mod</title><style>.edge>path:hover{stroke-width:8}</style>
<path fill="none" stroke="black" d="M855.14,-154.58C833.9,-151.29 807.47,-147.29 783.81,-144 649.45,-125.31 490.46,-105.95 412.61,-96.66"/>
<polygon fill="#e72222" stroke="black" points="413.12,-93.19 402.78,-95.48 412.3,-100.14 413.12,-93.19"/>
</g>
<!-- cfd_io_writers_fortran_binary_direct -->
<g id="node20" class="node">
<title>cfd_io_writers_fortran_binary_direct</title><style>.edge>path:hover{stroke-width:8}</style>
<ellipse fill="#ce3b3b" stroke="black" cx="769.81" cy="-245.52" rx="73.89" ry="29.52"/>
<text xml:space="preserve" text-anchor="middle" x="769.81" y="-252.9" font-family="Helvetica,sans-Serif" font-size="10.00" fill="#ffffff">cfd_io.</text>
<text xml:space="preserve" text-anchor="middle" x="769.81" y="-241.65" font-family="Helvetica,sans-Serif" font-size="10.00" fill="#ffffff">writers.</text>
<text xml:space="preserve" text-anchor="middle" x="769.81" y="-230.4" font-family="Helvetica,sans-Serif" font-size="10.00" fill="#ffffff">fortran_binary_direct</text>
</g>
<!-- cfd_io_writers_fortran_binary_direct&#45;&gt;cfd_io -->
<g id="edge46" class="edge">
<title>cfd_io_writers_fortran_binary_direct&#45;&gt;cfd_io</title><style>.edge>path:hover{stroke-width:8}</style>
<path fill="none" stroke="black" d="M824.65,-225.44C834.03,-222.25 843.69,-219 852.81,-216 927.59,-191.43 982.23,-231.05 1021.81,-163"/>
</g>
<!-- cfd_io_writers_fortran_binary_direct&#45;&gt;cfd_io_convert_mod -->
<g id="edge47" class="edge">
<title>cfd_io_writers_fortran_binary_direct&#45;&gt;cfd_io_convert_mod</title><style>.edge>path:hover{stroke-width:8}</style>
<path fill="none" stroke="black" d="M778.61,-216.08C782.12,-198.57 782.73,-176.88 769.81,-163"/>
</g>
<!-- cfd_io_writers_fortran_binary_sequential -->
<g id="node21" class="node">
<title>cfd_io_writers_fortran_binary_sequential</title><style>.edge>path:hover{stroke-width:8}</style>
<ellipse fill="#ce3b3b" stroke="black" cx="1341.81" cy="-435.61" rx="88.21" ry="29.52"/>
<text xml:space="preserve" text-anchor="middle" x="1341.81" y="-442.98" font-family="Helvetica,sans-Serif" font-size="10.00" fill="#ffffff">cfd_io.</text>
<text xml:space="preserve" text-anchor="middle" x="1341.81" y="-431.73" font-family="Helvetica,sans-Serif" font-size="10.00" fill="#ffffff">writers.</text>
<text xml:space="preserve" text-anchor="middle" x="1341.81" y="-420.48" font-family="Helvetica,sans-Serif" font-size="10.00" fill="#ffffff">fortran_binary_sequential</text>
</g>
<!-- cfd_io_writers_fortran_binary_sequential&#45;&gt;cfd_io -->
<g id="edge48" class="edge">
<title>cfd_io_writers_fortran_binary_sequential&#45;&gt;cfd_io</title><style>.edge>path:hover{stroke-width:8}</style>
<path fill="none" stroke="black" d="M1372.77,-407.73C1382.74,-397.12 1392.57,-384.12 1397.81,-370.09 1406.99,-345.5 1406.99,-335.63 1397.81,-311.04 1384.52,-275.47 1365.02,-276.57 1341.81,-246.52"/>
</g>
<!-- cfd_io_writers_plot3d_grid_binary -->
<g id="node25" class="node">
<title>cfd_io_writers_plot3d_grid_binary</title><style>.edge>path:hover{stroke-width:8}</style>
<polygon fill="blue" stroke="black" points="1389.18,-361.44 1294.43,-361.44 1294.43,-319.69 1389.18,-319.69 1389.18,-361.44"/>
<text xml:space="preserve" text-anchor="middle" x="1341.81" y="-347.94" font-family="Helvetica,sans-Serif" font-size="10.00" fill="white">cfd_io.</text>
<text xml:space="preserve" text-anchor="middle" x="1341.81" y="-336.69" font-family="Helvetica,sans-Serif" font-size="10.00" fill="white">writers.</text>
<text xml:space="preserve" text-anchor="middle" x="1341.81" y="-325.44" font-family="Helvetica,sans-Serif" font-size="10.00" fill="white">plot3d_grid_binary</text>
</g>
<!-- cfd_io_writers_fortran_binary_sequential&#45;&gt;cfd_io_writers_plot3d_grid_binary -->
<g id="edge49" class="edge">
<title>cfd_io_writers_fortran_binary_sequential&#45;&gt;cfd_io_writers_plot3d_grid_binary</title><style>.edge>path:hover{stroke-width:8}</style>
<path fill="none" stroke="black" d="M1341.81,-405.68C1341.81,-395.37 1341.81,-383.71 1341.81,-373.18"/>
<polygon fill="#ce3b3b" stroke="black" points="1345.31,-373.43 1341.81,-363.43 1338.31,-373.43 1345.31,-373.43"/>
</g>
<!-- cfd_io_writers_hdf5 -->
<g id="node22" class="node">
<title>cfd_io_writers_hdf5</title><style>.edge>path:hover{stroke-width:8}</style>
<ellipse fill="#ce3b3b" stroke="black" cx="1021.81" cy="-245.52" rx="34.12" ry="29.52"/>
<text xml:space="preserve" text-anchor="middle" x="1021.81" y="-252.9" font-family="Helvetica,sans-Serif" font-size="10.00" fill="#ffffff">cfd_io.</text>
<text xml:space="preserve" text-anchor="middle" x="1021.81" y="-241.65" font-family="Helvetica,sans-Serif" font-size="10.00" fill="#ffffff">writers.</text>
<text xml:space="preserve" text-anchor="middle" x="1021.81" y="-230.4" font-family="Helvetica,sans-Serif" font-size="10.00" fill="#ffffff">hdf5</text>
</g>
<!-- cfd_io_writers_hdf5&#45;&gt;cfd_io -->
<g id="edge50" class="edge">
<title>cfd_io_writers_hdf5&#45;&gt;cfd_io</title><style>.edge>path:hover{stroke-width:8}</style>
<path fill="none" stroke="black" d="M1015.08,-216.28C1012.7,-199.68 1012.56,-178.91 1021.81,-163"/>
</g>
<!-- cfd_io_writers_hdf5&#45;&gt;cfd_io_convert_mod -->
<g id="edge51" class="edge">
<title>cfd_io_writers_hdf5&#45;&gt;cfd_io_convert_mod</title><style>.edge>path:hover{stroke-width:8}</style>
<path fill="none" stroke="black" d="M996.24,-225.55C990.69,-222.01 984.7,-218.61 978.81,-216 891.19,-177.19 835.09,-233.16 769.81,-163"/>
</g>
<!-- cfd_io_writers_plot3d -->
<g id="node23" class="node">
<title>cfd_io_writers_plot3d</title><style>.edge>path:hover{stroke-width:8}</style>
<polygon fill="blue" stroke="black" points="1165.81,-266.4 1111.81,-266.4 1111.81,-224.65 1165.81,-224.65 1165.81,-266.4"/>
<text xml:space="preserve" text-anchor="middle" x="1138.81" y="-252.9" font-family="Helvetica,sans-Serif" font-size="10.00" fill="white">cfd_io.</text>
<text xml:space="preserve" text-anchor="middle" x="1138.81" y="-241.65" font-family="Helvetica,sans-Serif" font-size="10.00" fill="white">writers.</text>
<text xml:space="preserve" text-anchor="middle" x="1138.81" y="-230.4" font-family="Helvetica,sans-Serif" font-size="10.00" fill="white">plot3d</text>
</g>
<!-- cfd_io_writers_plot3d&#45;&gt;cfd_io -->
<g id="edge52" class="edge">
<title>cfd_io_writers_plot3d&#45;&gt;cfd_io</title><style>.edge>path:hover{stroke-width:8}</style>
<path fill="none" stroke="black" d="M1111.36,-225.43C1076.77,-201.36 1021.76,-163.07 1021.81,-163"/>
</g>
<!-- cfd_io_writers_plot3d&#45;&gt;cfd_io_convert_mod -->
<g id="edge53" class="edge">
<title>cfd_io_writers_plot3d&#45;&gt;cfd_io_convert_mod</title><style>.edge>path:hover{stroke-width:8}</style>
<path fill="none" stroke="black" d="M1111.5,-232.44C1097.72,-226.74 1080.62,-220.28 1064.81,-216 936.22,-181.2 860.55,-260.52 769.81,-163"/>
</g>
<!-- cfd_io_writers_plot3d_grid_ascii -->
<g id="node24" class="node">
<title>cfd_io_writers_plot3d_grid_ascii</title><style>.edge>path:hover{stroke-width:8}</style>
<ellipse fill="#ce3b3b" stroke="black" cx="1175.81" cy="-340.57" rx="62.76" ry="29.52"/>
<text xml:space="preserve" text-anchor="middle" x="1175.81" y="-347.94" font-family="Helvetica,sans-Serif" font-size="10.00" fill="#ffffff">cfd_io.</text>
<text xml:space="preserve" text-anchor="middle" x="1175.81" y="-336.69" font-family="Helvetica,sans-Serif" font-size="10.00" fill="#ffffff">writers.</text>
<text xml:space="preserve" text-anchor="middle" x="1175.81" y="-325.44" font-family="Helvetica,sans-Serif" font-size="10.00" fill="#ffffff">plot3d_grid_ascii</text>
</g>
<!-- cfd_io_writers_plot3d_grid_ascii&#45;&gt;cfd_io -->
<g id="edge54" class="edge">
<title>cfd_io_writers_plot3d_grid_ascii&#45;&gt;cfd_io</title><style>.edge>path:hover{stroke-width:8}</style>
<path fill="none" stroke="black" d="M1132.52,-318.68C1106.05,-302.54 1078.23,-277.72 1083.81,-246.52"/>
</g>
<!-- cfd_io_writers_plot3d_grid_ascii&#45;&gt;cfd_io_writers_plot3d -->
<g id="edge55" class="edge">
<title>cfd_io_writers_plot3d_grid_ascii&#45;&gt;cfd_io_writers_plot3d</title><style>.edge>path:hover{stroke-width:8}</style>
<path fill="none" stroke="black" d="M1164.5,-311.14C1160.23,-300.4 1155.35,-288.13 1151,-277.2"/>
<polygon fill="#ce3b3b" stroke="black" points="1154.38,-276.21 1147.43,-268.21 1147.87,-278.8 1154.38,-276.21"/>
</g>
<!-- cfd_io_writers_plot3d_grid_binary&#45;&gt;cfd_io -->
<g id="edge56" class="edge">
<title>cfd_io_writers_plot3d_grid_binary&#45;&gt;cfd_io</title><style>.edge>path:hover{stroke-width:8}</style>
<path fill="none" stroke="black" d="M1348.28,-319.52C1353.55,-298.99 1357.8,-267.23 1341.81,-246.52"/>
</g>
<!-- cfd_io_writers_plot3d_grid_binary&#45;&gt;cfd_io_writers_plot3d -->
<g id="edge57" class="edge">
<title>cfd_io_writers_plot3d_grid_binary&#45;&gt;cfd_io_writers_plot3d</title><style>.edge>path:hover{stroke-width:8}</style>
<path fill="none" stroke="black" d="M1297.51,-319.26C1261.24,-302.64 1210.52,-279.39 1176.26,-263.69"/>
<polygon fill="blue" stroke="black" points="1178.11,-260.69 1167.56,-259.7 1175.19,-267.05 1178.11,-260.69"/>
</g>
<!-- cfd_io_writers_tecplot_ascii -->
<g id="node26" class="node">
<title>cfd_io_writers_tecplot_ascii</title><style>.edge>path:hover{stroke-width:8}</style>
<ellipse fill="#ce3b3b" stroke="black" cx="627.81" cy="-245.52" rx="50.03" ry="29.52"/>
<text xml:space="preserve" text-anchor="middle" x="627.81" y="-252.9" font-family="Helvetica,sans-Serif" font-size="10.00" fill="#ffffff">cfd_io.</text>
<text xml:space="preserve" text-anchor="middle" x="627.81" y="-241.65" font-family="Helvetica,sans-Serif" font-size="10.00" fill="#ffffff">writers.</text>
<text xml:space="preserve" text-anchor="middle" x="627.81" y="-230.4" font-family="Helvetica,sans-Serif" font-size="10.00" fill="#ffffff">tecplot_ascii</text>
</g>
<!-- cfd_io_writers_tecplot_ascii&#45;&gt;cfd_io -->
<g id="edge58" class="edge">
<title>cfd_io_writers_tecplot_ascii&#45;&gt;cfd_io</title><style>.edge>path:hover{stroke-width:8}</style>
<path fill="none" stroke="black" d="M664.23,-224.73C671.54,-221.39 679.29,-218.27 686.81,-216 758.96,-194.2 983.92,-228.15 1021.81,-163"/>
</g>
<!-- cfd_io_writers_tecplot_ascii&#45;&gt;cfd_io_convert_mod -->
<g id="edge59" class="edge">
<title>cfd_io_writers_tecplot_ascii&#45;&gt;cfd_io_convert_mod</title><style>.edge>path:hover{stroke-width:8}</style>
<path fill="none" stroke="black" d="M664.98,-225.4C708.44,-202.74 773.97,-167.47 769.81,-163"/>
</g>
<!-- cfd_io_writers_tecplot_binary -->
<g id="node27" class="node">
<title>cfd_io_writers_tecplot_binary</title><style>.edge>path:hover{stroke-width:8}</style>
<ellipse fill="#ce3b3b" stroke="black" cx="915.81" cy="-245.52" rx="54.27" ry="29.52"/>
<text xml:space="preserve" text-anchor="middle" x="915.81" y="-252.9" font-family="Helvetica,sans-Serif" font-size="10.00" fill="#ffffff">cfd_io.</text>
<text xml:space="preserve" text-anchor="middle" x="915.81" y="-241.65" font-family="Helvetica,sans-Serif" font-size="10.00" fill="#ffffff">writers.</text>
<text xml:space="preserve" text-anchor="middle" x="915.81" y="-230.4" font-family="Helvetica,sans-Serif" font-size="10.00" fill="#ffffff">tecplot_binary</text>
</g>
<!-- cfd_io_writers_tecplot_binary&#45;&gt;cfd_io -->
<g id="edge60" class="edge">
<title>cfd_io_writers_tecplot_binary&#45;&gt;cfd_io</title><style>.edge>path:hover{stroke-width:8}</style>
<path fill="none" stroke="black" d="M954.95,-224.63C978.28,-210.65 1006.28,-189.69 1021.81,-163"/>
</g>
<!-- cfd_io_writers_tecplot_binary&#45;&gt;cfd_io_convert_mod -->
<g id="edge61" class="edge">
<title>cfd_io_writers_tecplot_binary&#45;&gt;cfd_io_convert_mod</title><style>.edge>path:hover{stroke-width:8}</style>
<path fill="none" stroke="black" d="M875.22,-225.38C837.71,-207.08 785.48,-179.84 769.81,-163"/>
</g>
</g>
</svg>
